# xmcd
#
# Track frame offsets: 
#        150
#        5464
#        26765
#        38015
#        53765
#        60515
#        81889
#        96515
#        113953
#        127453
#        139265
#        146016
#        166267
#        183986
#        205923
#        217173
#        239111
#        256268
#        267518
#
# Disc length: 3861 seconds
#
# Revision: 1
# Processed by: cddbd v1.5.2PL0 Copyright (c) Steve Scherf et al.
# Submitted via: ExactAudioCopyFreeDBPlugin 1.0
#
DISCID=270f1313
DTITLE=Umek - Toolroom Knights [CD1]
DYEAR=2010
DGENRE=Techno
TTITLE0=Intro 1
TTITLE1=Oscar L - NY Funk
TTITLE2=Matteo DiMarr and Adam K - Bum Bom
TTITLE3=Kiko - Tweak
TTITLE4=Alex Kenji - My Oscar
TTITLE5=Koen Groeneveld-DJ Tonio - CVR-Buzz Buzz
TTITLE6=Mar-C and Kobbe - You You You
TTITLE7=Koen Groeneveld - Rudder
TTITLE8=Mike Spaccavento - That's Done It
TTITLE9=D-Becker - Not Against
TTITLE10=Denis Underground - Nice Evil
TTITLE11=Funkagenda - Astana
TTITLE12=Da Fresh - That Body
TTITLE13=Spartaque - Raise Me
TTITLE14=Elay Lazutkin - Ibiza
TTITLE15=Michael Woods - Nitro
TTITLE16=Threesixty - Dominon
TTITLE17=Dean Newton - Kuraitani
TTITLE18=Christian Fischer - GTX Drift
EXTD=
EXTT0=
EXTT1=
EXTT2=
EXTT3=
EXTT4=
EXTT5=
EXTT6=
EXTT7=
EXTT8=
EXTT9=
EXTT10=
EXTT11=
EXTT12=
EXTT13=
EXTT14=
EXTT15=
EXTT16=
EXTT17=
EXTT18=
PLAYORDER=
